<svg xmlns="http://www.w3.org/2000/svg" viewBox="0 0 310 300">
  <circle cx="155" cy="185" r="125" fill-opacity=".1" transform="rotate(-9.027)"/>
  <circle cx="130.169" cy="172.418" r="125.69" fill="#dc0f17" stroke="#620e11" stroke-width=".904" transform="rotate(-9.027)"/>
  <path fill="#f12e35" d="M83.38 147.796c-3.553 21.015-2.345 40.299-15.121 38.139-12.776-2.16-20.254-20.947-16.7-41.962 3.552-21.015 16.79-36.3 29.565-34.14 12.777 2.16 5.808 16.947 2.255 37.963z"/>
  <path fill="#ce0f17" d="M270.273 100.17a165.303 165.303 0 0 1 1.458 12.419 165.303 165.303 0 0 1-89.91 159.709 125.69 125.69 0 0 0 98.41-132.163 125.69 125.69 0 0 0-9.958-39.964z"/>
  <path fill="#630c0c" d="M155.806 229.5a15.629 13.55 73.722 0 0 17.329 11.025 15.629 13.55 73.722 0 0 8.672-18.617z"/>
  <path fill="#ef4958" d="M169.942 229.592a10.766 10.766 0 0 0-7.303 7.31c2.954 2.21 6.594 3.08 10.047 2.071 3.455-1.009 6.054-3.703 7.351-7.159a10.766 10.766 0 0 0-10.095-2.222z"/>
  <g fill="#ef4958" transform="rotate(-15.91 243.764 39.998) scale(.79268)">
    <circle cx="214.743" cy="245.11" r="6.256"/>
    <circle cx="95.257" cy="245.11" r="6.256"/>
  </g>
  <path fill="#4d9e45" d="M281.942 145.099c7.437-3.576 5.86-12.985 1.063-18.46.332 7.016-5.688 9.975-5.482 14.25.166 3.08 4.42 4.21 4.42 4.21z"/>
  <path fill="none" stroke="#620e11" stroke-miterlimit="10" stroke-width=".93337748" d="M276.243 155.848s6.194-2.642 5.684-10.996c1.629-.38 9.62-6.335 1.232-17.778 1.084 8.181-11.776 13.296-1.232 17.778"/>
  <path fill="#5aac46" d="M281.645 143.747s4.897-1.458 4.05-9.345c-1.012 5.961-3.753 6.87-4.05 9.345z"/>
  <g>
    <path fill="#4d9e45" d="M53.051 229.753c-6.88 4.557-14.154-1.616-16.4-8.54 5.857 3.877 11.481.222 15.048 2.588 2.56 1.72 1.352 5.952 1.352 5.952z"/>
    <path fill="none" stroke="#620e11" stroke-miterlimit="10" stroke-width=".93337748" d="M65.203 230.363s-2.872 2.094-7.093 1.43c-1.59-.249-3.371-.889-5.263-2.18-1.16 1.206-10.368 5.02-15.9-8.045 6.471 5.12 17.45-3.306 15.9 8.046"/>
    <path fill="#5aac46" d="M52.043 228.806s-3.76 3.46-10.1-1.307c5.638 2.183 7.822.294 10.1 1.307z"/>
  </g>
  <g>
    <path fill="#4d9e45" stroke="#620e11" stroke-width=".93337748" d="M164.701 273.897l-.468 6.517s-12.219-2.17-9.336 2.273c.662 1.52 2.95 1.9 8.968.7 4.13-.823 2.454-2.582.368-2.973"/>
    <path fill="#5aac46" d="M161.894 281.504c-1.995-.946-6.403-.482-6.135.361.432.926 2.21-.537 6.135-.36z"/>
    <g>
      <path fill="#4d9e45" stroke="#620e11" stroke-width=".93337748" d="M236.976 246.173l3.036 5.785s10.33-6.876 9.465-1.651c.002 1.658-1.943 2.922-7.938 4.23-4.115.897-3.283-1.387-1.527-2.579"/>
      <path fill="#5aac46" d="M242.591 252.022c1.45-1.666 5.676-3.003 5.768-2.123-.026 1.021-2.241.391-5.768 2.123z"/>
    </g>
  </g>
  <g>
    <path fill="#620e11" d="M113.831 78.682c-.549-19.511-7.267-23.95-7.267-23.95s-12.112 6.506-19.842 3.026c6.765-3.343 12.562-10.174 14.819-14.029-1.323-3.805-1.09-6.201.378-8.709 1.505-2.57 4.812-3.648 7.596-4.706 2.493-.948 5.277-1.936 7.883-1.369 2.45.534 5.358 2.333 6.206 4.254-1.45 3.92 23.186 6.116 36.125 7.412-1.928 3.622-22.182 11.732-34.62 10.927 2.334 3.844-2.088 14.1-11.278 27.144z"/>
    <path fill="#4e9e3b" stroke="#620e11" stroke-linecap="round" stroke-width=".93337748" d="M133.599 17.984c-5.786 7.704-20.069.286-25.476 9.706-.318-2.076-1.464-9.55-1.639-10.876-.198-1.51-7.41-1.092-9.914.537 2.657 1.32 6.178 7.35 7.711 10.155-10.047-1.244-30.808 2.534-32.778 6.653 7.328-1.479 23.773 1.024 25.096 4.83-2.257 3.854-14.404 10.687-21.169 14.03 7.73 3.48 22.946-1.974 22.946-1.974s10.02 5.718 10.569 25.23c9.189-13.045 13.316-25.225 10.983-29.069 12.438.804 31.076-5.297 34.592-7.331-12.94-1.296-28.837-4.393-27.386-8.312-.848-1.922 7.516-9.009 6.465-13.58z"/>
    <path fill="#5bad46" d="M130.033 23.61c-8.87 4.747-15.667-3.591-21.453 8.344-3.82-1.306-7.5-4.544-29.533.167 7.553-.087 20.62 2.296 21.942 6.102-2.257 3.854-7.794 8.375-14.559 11.718 17.927.299 21.068-11.46 24.186 12.368 9.4-14.617 6.468-16.155 6.094-19.233 12.438.804 18.39-.745 22.806-1.978-14.07-1.795-18.195-5.271-16.744-9.191-.848-1.921 2.966-4.507 7.261-8.298zM99.473 17.845c2.455-.74 5.167-.335 5.167-.335l-2.437 2.31z"/>
  </g>
  <path fill="none" stroke="#630c0c" stroke-width="2.801" d="M128.361 224.611c-8.673-11.428 10.434-23.402 17.116-7.726M202.735 205.506c2.123-14.19-20.387-15.52-18.723 1.44"/>
  <path fill="#fff" d="M150.276 181.4c-.444-.255-.91-.66-1.035-.902a4.28 4.28 0 0 0-.5-.739c-.47-.521-.642-1.415-.331-1.73.154-.156.456-.724.67-1.262.31-.777.46-.963.729-.904.186.04.83.052 1.43.025 1.798-.082 2.095.002 2.405.675.181.394.247.897.191 1.476-.046.484-.042 1.044.008 1.244.06.235-.11.576-.477.961-.313.328-.576.68-.586.783-.01.103-.396.333-.858.511-.797.308-.88.3-1.646-.138zm14.062-3.25c-1.944.343-3.007.161-4.428-.755-.558-.36-1.442-1.172-1.964-1.805-.945-1.147-.95-1.157-1.325-3.026-.855-4.257.306-8.8 3.67-14.362.885-1.464 1.667-2.676 1.737-2.694.07-.017.453-.694.851-1.503.507-1.031.843-1.502 1.121-1.572.219-.055.492-.3.606-.545.115-.245.321-.682.459-.97l.25-.525.96.072c.69.051 1.03.179 1.206.451.135.209.698.663 1.251 1.01.554.348 1.18.89 1.392 1.205.346.515.367.66.203 1.415-.1.463-.106.868-.013.9.093.031.27.28.392.554.123.273 1.217 1.781 2.432 3.35 1.215 1.57 2.24 2.977 2.279 3.127.038.15.435.88.882 1.621.636 1.056.86 1.605 1.03 2.53.25 1.372-.03 3.116-.573 3.555-.19.153-.75.894-1.244 1.646-.553.842-1.131 1.498-1.506 1.708-.334.187-1.095.753-1.692 1.257-.596.505-1.525 1.098-2.064 1.318-.54.22-1.376.63-1.86.91-.91.528-1.37.656-4.052 1.128zm1.724-6.809c2.087-.962 3.083-1.655 4.25-2.955 1.732-1.931 1.68-2.744-.338-5.384-.52-.68-1.293-1.71-1.718-2.287-.424-.577-.826-1.036-.893-1.02-.067.018-.25.23-.406.471-.31.478-.795.678-1.143.47-.147-.088-.572.487-1.299 1.76-1.597 2.797-1.745 3.154-2.256 5.442-.539 2.415-.517 3.785.065 4.095.844.45 1.811.297 3.738-.592zm21.154 1.062c-1.944.343-3.006.162-4.427-.754-.558-.36-1.442-1.173-1.964-1.806-.945-1.147-.95-1.157-1.325-3.026-.855-4.257.306-8.8 3.67-14.362.885-1.464 1.667-2.676 1.736-2.694.07-.017.454-.694.852-1.503.507-1.031.843-1.502 1.121-1.572.219-.055.491-.3.606-.545l.458-.97.25-.525.96.072c.69.052 1.03.179 1.207.451.135.209.698.664 1.251 1.01.554.348 1.18.89 1.392 1.206.346.514.367.66.203 1.414-.1.463-.106.868-.013.9.093.032.27.281.392.554.123.273 1.217 1.781 2.432 3.351 1.215 1.57 2.24 2.977 2.278 3.126.039.15.436.88.883 1.621.636 1.056.86 1.606 1.029 2.531.251 1.37-.03 3.115-.572 3.554-.19.153-.75.894-1.244 1.646-.553.843-1.131 1.498-1.506 1.708-.334.187-1.096.753-1.692 1.257-.596.505-1.525 1.098-2.064 1.318-.54.22-1.376.63-1.86.91-.91.528-1.37.656-4.053 1.128zm1.725-6.809c2.087-.962 3.083-1.654 4.25-2.955 1.731-1.931 1.68-2.744-.338-5.384-.52-.68-1.293-1.71-1.718-2.287-.425-.577-.827-1.036-.893-1.019-.067.017-.25.229-.406.47-.31.478-.796.678-1.143.47-.147-.088-.572.487-1.299 1.76-1.597 2.797-1.746 3.155-2.256 5.442-.539 2.415-.517 3.785.064 4.095.845.45 1.812.297 3.739-.592zm-75.628 24.548c-1.782.015-2.676-.839-3.404-3.254-.658-2.179-.623-3.01.196-4.79.95-2.065 2.945-5.478 3.878-6.634a34.64 34.64 0 0 0 1.398-1.875 40.54 40.54 0 0 1 1.497-2.011c.641-.805.822-1.154.651-1.256-.491-.294-3.046.388-4.858 1.297-1.784.894-3.935 1.502-4.91 1.387-.673-.08-1.18-.835-1.642-2.448-.35-1.224-.363-1.456-.117-2.197l.274-.829 1.867-.87c4.125-1.92 7.839-2.627 10.66-2.03 1.044.221 1.496.413 1.702.723.46.693.66.85 1.612 1.254.978.417 2.01 1.56 2.259 2.503.076.285.001 1.008-.165 1.607-.366 1.324-2.195 4.304-3.35 5.46-.464.465-1.134 1.342-1.488 1.95a14.831 14.831 0 0 1-1.516 2.067c-.48.529-1.076 1.392-1.323 1.917l-.45.955h.487c.618 0 3.688-1.16 5.291-1.998a24.423 24.423 0 0 1 2.314-1.044c.6-.223 1.35-.577 1.668-.787.317-.21.997-.545 1.51-.745.924-.358.94-.357 1.765.155.499.31.895.705.988.986.084.257.274.556.42.663.225.164.312.11.562-.345.294-.536.307-.541 2.452-.963 2.426-.477 5.3-1.495 5.414-1.917.039-.144.282-.418.54-.61.442-.328.544-1.06.133-.956-.096.024-.2-.065-.234-.198-.033-.132-.288-.24-.566-.237-.279.002-.827-.108-1.22-.243-.393-.136-.999-.237-1.346-.224-.348.012-1.68-.176-2.959-.42-1.916-.364-2.448-.543-3.019-1.016-1.514-1.254-1.615-1.432-2.01-3.54-.214-1.137-.31-2.182-.236-2.555.302-1.51 2.623-4.415 5.12-6.408l1.17-.933 1.062.65c1.925 1.177 1.862 1.176 5.081.12 3.98-1.303 4.783-1.469 5.287-1.09.224.167.446.46.493.649.048.189.301.527.564.75.71.606 1.111 1.302 1.154 2.004.035.586-.029.666-1.012 1.263-.577.35-1.345.712-1.705.802-.361.09-1.253.442-1.983.78-.73.337-1.395.612-1.48.61-.287-.005-4.282 1.891-4.827 2.292l-.544.4.52.238c.287.131.868.301 1.293.378 1.3.236 4.497 2.538 5.96 4.292.58.694.97 1.368 1.219 2.101.32.947.334 1.2.111 2.063-.14.54-.557 1.476-.93 2.079-.537.87-.93 1.26-1.918 1.898-.684.442-1.416.827-1.627.856-.212.03-.798.265-1.302.525-.698.358-1.132.476-1.81.495-.492.014-1.335.083-1.874.155-1.393.185-2.537-.085-3.148-.742-.279-.3-.745-.743-1.036-.985l-.528-.441-.431.636c-.274.403-.624.684-.956.768-.288.072-.698.333-.91.58-.213.247-.764.599-1.225.782-.46.183-2.282 1.02-4.047 1.861-5.79 2.758-8.273 3.622-10.466 3.64zm37.056-17.981c-.29-.074-.93-.574-1.44-1.123-.837-.9-.934-1.082-1.097-2.046-.132-.78-.099-1.242.125-1.764.28-.654.376-.725 1.255-.946.61-.153 1.227-.176 1.718-.063.422.097.887.146 1.034.109a.273.273 0 0 1 .332.193c.036.143.182.23.325.195.198-.05.315.152.49.844.127.5.342 1.172.477 1.492.246.581.243.587-1.056 1.878-.716.712-1.379 1.31-1.472 1.33-.093.019-.404-.025-.691-.1z"/>
</svg>
