<svg xmlns="http://www.w3.org/2000/svg" viewBox="0 0 512 512">
  <circle cx="267" cy="267" r="240" fill="#62af4f" stroke="#75080d" stroke-linecap="round" stroke-linejoin="round" stroke-width="3" paint-order="stroke markers fill"/>
  <g transform="rotate(15.2 -947.1 1635) scale(1.55696)">
    <circle cx="-64.6" cy="-10.3" r="125" fill-opacity=".1" transform="rotate(-9)"/>
    <circle cx="-89.4" cy="-22.9" r="125.7" fill="#dc0f17" stroke="#620e11" stroke-width=".9" transform="rotate(-9)"/>
    <path fill="#f12e35" d="M-164-10.6c-3.6 21-2.4 40.3-15.2 38.1-12.8-2.1-20.3-21-16.7-42 3.5-21 16.8-36.2 29.6-34 12.7 2 5.8 16.9 2.2 37.9z"/>
    <path fill="#ce0f17" d="M22.8-58.2a165.3 165.3 0 0 1 1.5 12.4 165.3 165.3 0 0 1-90 159.7A125.7 125.7 0 0 0 32.8-18.3a125.7 125.7 0 0 0-10-40z"/>
    <g fill="#ef4958" transform="rotate(-15.9 -451 814) scale(.79268)">
      <circle cx="214.7" cy="245.1" r="6.3"/>
      <circle cx="95.3" cy="245.1" r="6.3"/>
    </g>
    <g transform="matrix(.5797 -.27651 .27651 .5797 -310.2 -79.6)">
      <circle cx="269.7" cy="249.1" r="62.9" fill-opacity=".1" paint-order="stroke markers fill"/>
      <circle cx="257.7" cy="241.1" r="62.9" fill="#fff" paint-order="stroke markers fill"/>
      <path fill="#75080d" d="M251.6 306.7a65.6 65.6 0 0 1-58.3-76.8 65.5 65.5 0 0 1 54.4-53l2.2-.4-.3-4-.4-3.8-5.1.2-5.1.4-.2-3.1-.2-3 13.3-1 13.5-1 .1 3 .3 3-5 .5-5.2.5.2 4 .2 3.8 2.2.1c13.6.5 24 3.5 34.9 10.3l2.3 1.4 3-4.5a27 27 0 0 1 3.5-4.4c.2 0 1.5.8 2.7 1.6 1.7 1.4 2 2 1.9 2.4l-3.4 4.7-2.8 4 2.8 2.7a65.2 65.2 0 0 1 20 52.1 65.6 65.6 0 0 1-71.5 60.3zm22.3-8.2a59 59 0 0 0-10.3-115.9 58.7 58.7 0 0 0-50.5 20.4 57 57 0 0 0-14 30.3 59.5 59.5 0 0 0 56.6 67.5c3.5.1 14.7-1.2 18.2-2.3zm-18.3-45.2l-.4-5.2-1.1-.7c-2.5-1.1-3.8-5.3-3-8.2.3-.7 1.1-2 1.9-2.7l1.2-1.3-1.4-19.4-1.4-19.3 3-.3 3.1-.2 1.5 19.4 1.4 19.4 1.5 1.1c.8.6 1.7 1.7 2 2.3 1.4 2.8.7 7-1.5 8.6l-1 .7.3 5.3.4 5.3-3 .2-3 .3z"/>
    </g>
    <path fill="#4d9e45" d="M-42.1-22.1c-3.4-7.5-12.8-6.3-18.4-1.7 7 0 9.7 6 14 6 3 0 4.3-4.3 4.3-4.3z"/>
    <path fill="none" stroke="#620e11" stroke-miterlimit="10" stroke-width=".9" d="M-25.6-8S-34-22.4-42.4-22.2c-.3-1.5-6-9.7-17.7-1.8 8.2-.8 13 12.3 17.7 1.8"/>
    <path fill="#4d9e45" d="M-134.8 19.8c-1.9-8 6.4-12.7 13.7-12.3-5.6 4-4.2 10.6-7.7 13-2.5 1.9-6-.7-6-.7z"/>
    <path fill="none" stroke="#620e11" stroke-miterlimit="10" stroke-width=".9" d="M-143.2 48.6s-2.3-5.4-.1-14.5a23 23 0 0 1 8.7-14.4c-.8-1.5-1-11.5 13.1-12.1-7 4.3-3 17.5-13 12.1"/>
    <path fill="#4d9e45" stroke="#620e11" stroke-width=".9" d="M-82.8 115.5l-.4 6.5s-12.3-2.2-9.4 2.3c.7 1.5 3 1.9 9 .7 4.1-.9 2.4-2.6.4-3m72.7-34.2l3 5.7S3 86.7 2 92c0 1.6-2 3-8 4.2-4 1-3.2-1.4-1.5-2.6"/>
    <path fill="#620e11" d="M-133.6-79.7c-.6-19.5-7.3-24-7.3-24s-12.1 6.5-19.9 3a40.2 40.2 0 0 0 14.9-14c-1.4-3.8-1.1-6.2.3-8.7 1.6-2.6 4.9-3.6 7.6-4.7 2.5-1 5.3-2 8-1.4 2.4.6 5.3 2.4 6.1 4.3-1.4 3.9 23.2 6.1 36.2 7.4-2 3.6-22.2 11.7-34.7 11 2.4 3.8-2 14-11.2 27z"/>
    <path fill="#4e9e3b" stroke="#620e11" stroke-linecap="round" stroke-width=".9" d="M-113.9-140.4c-5.8 7.7-20 .3-25.5 9.7l-1.6-10.9c-.2-1.5-7.4-1.1-9.9.5 2.7 1.4 6.2 7.4 7.7 10.2-10-1.3-30.8 2.5-32.8 6.6 7.4-1.4 23.8 1 25.1 4.9-2.2 3.8-14.4 10.7-21.1 14 7.7 3.5 22.9-2 22.9-2s10 5.7 10.6 25.3c9.2-13 13.3-25.3 11-29.1 12.4.8 31-5.3 34.5-7.3-12.9-1.3-28.8-4.4-27.3-8.4-.9-1.9 7.5-9 6.4-13.5z"/>
    <path fill="#5bad46" d="M-117.4-134.8c-9 4.7-15.7-3.6-21.5 8.3-3.8-1.3-7.5-4.5-29.5.2 7.5 0 20.6 2.3 22 6.1a36.1 36.1 0 0 1-14.6 11.7c17.9.3 21-11.4 24.1 12.4 9.4-14.6 6.5-16.2 6.1-19.2a61 61 0 0 0 22.8-2c-14-1.8-18.2-5.3-16.7-9.2-.8-2 3-4.5 7.3-8.3zm-30.6-5.8c2.5-.7 5.2-.3 5.2-.3l-2.5 2.3z"/>
    <g transform="rotate(-17.8 -393.1 728.8) scale(.77847)">
      <circle cx="113.8" cy="223.4" r="15.5" fill="#630c0c"/>
      <circle cx="108.1" cy="218.1" r="6.7" fill="#fff"/>
      <circle cx="122.3" cy="227.7" r="3.8" fill="#fff"/>
    </g>
    <g transform="rotate(-17.8 -387.7 736.2) scale(.77847)">
      <circle cx="196.2" cy="224.3" r="15.5" fill="#630c0c"/>
      <circle cx="191.6" cy="218.1" r="6.7" fill="#fff"/>
      <circle cx="203.9" cy="227.7" r="3.8" fill="#fff"/>
    </g>
    <path fill="#630c0c" d="M-57.5 61.7l-1.9.5c1.9 6.8-1.4 10.9-5.4 12-4 1-8.8-1-10.7-7.7l-1.8.6c2 7.4 8 10.2 13 8.9 5-1.3 8.8-6.8 6.8-14.3z" color="#000" font-family="sans-serif" font-weight="400" overflow="visible" style="line-height:normal;font-variant-ligatures:normal;font-variant-position:normal;font-variant-caps:normal;font-variant-numeric:normal;font-variant-alternates:normal;font-feature-settings:normal;text-indent:0;text-align:start;text-decoration-line:none;text-decoration-style:solid;text-decoration-color:#000;text-transform:none;text-orientation:mixed;shape-padding:0;isolation:auto;mix-blend-mode:normal" white-space="normal"/>
  </g>
</svg>