<svg xmlns="http://www.w3.org/2000/svg" viewBox="0 0 512 512">
  <ellipse cx="30.5" cy="368.4" fill="#62af4f" stroke="#75080d" stroke-linecap="round" stroke-linejoin="round" stroke-width="2.9" paint-order="stroke markers fill" rx="211.8" ry="256.9" transform="matrix(.78898 -.61442 .63117 .77564 0 0)"/>
  <g transform="rotate(15.2 -965.3 1432.6) scale(1.55696)">
    <circle cx="-73.6" cy="-1.9" r="125" fill-opacity=".1" transform="rotate(-9)"/>
    <circle cx="-89.4" cy="-22.9" r="125.7" fill="#dc0f17" stroke="#620e11" stroke-width=".9" transform="rotate(-9)"/>
    <path fill="#f12e35" d="M-172.9-8.4c2.4 21.2 8.8 39.4-4 40.8-13 1.5-25.4-14.6-27.7-35.8-2.4-21.1 6.2-39.4 19.1-40.8 12.8-1.6 10.2 14.6 12.5 35.8z"/>
    <path fill="#ce0f17" d="M22.8-58.2a165.3 165.3 0 0 1 1.5 12.4 165.3 165.3 0 0 1-90 159.7A125.7 125.7 0 0 0 32.8-18.3a125.7 125.7 0 0 0-10-40z"/>
    <g fill="#ef4958" transform="matrix(.68118 -.2762 .28516 .73887 -213.3 -91.8)">
      <circle cx="214.7" cy="245.1" r="6.3"/>
      <circle cx="95.3" cy="245.1" r="6.3"/>
    </g>
    <path fill-opacity=".2" d="M58.7-57.3c-8.4-1.4-17-2.2-18.2-1.2-2.7 2-12.7 62.4-10.8 65.3 1.9 2.7 33.3 8 36 6 2.7-2 12.6-62.4 10.7-65.2-.9-1.4-9.2-3.4-17.7-4.9z" paint-order="stroke markers fill"/>
    <path fill="#f0f0f0" d="M7.3-46.4L47.4-49l1 67.5-40 2.4z" paint-order="stroke markers fill"/>
    <path fill="#630c0c" stroke="#fff" stroke-linecap="round" stroke-linejoin="round" stroke-width="3" d="M407.4 200.5c-15.3 0-30.7 1-32.7 3.1-4.2 4.2-4.2 107.9 0 112 4 4.1 61.3 4.1 65.4 0 4.2-4.1 4.2-107.8 0-112-2-2-17.4-3-32.7-3zm-24.6 11.2H432l.6 38.7.7 38.7h-51.8l.6-38.7zm31.5 92.5c-1 6.7-8.1 8.7-12.6 3.3-4.4-11.7 14-14.4 12.6-3.3z" paint-order="stroke markers fill" transform="matrix(.62256 -.0378 .00991 .63252 -229.1 -163)"/>
    <path fill="#4d9e45" d="M48.8 20.5c7.3-3.7 5.7-13 .8-18.4.3 7-5.5 10-5.3 14.2.1 3 4.5 4.1 4.5 4.1z"/>
    <path fill="none" stroke="#620e11" stroke-miterlimit="10" stroke-width=".9" d="M16.8 41c14.4-3.6 32.6-12.4 32-20.8 1.5-.3 9.5-6.4 1-17.7 1.2 8.1-11.7 13.5-1 17.7"/>
    <path fill="#4d9e45" d="M-123.6 108.6c-6.9 4.5-4.1 13.6 1.4 18.4-1.3-6.8 4.3-10.6 3.4-14.7-.5-3.1-4.8-3.7-4.8-3.7z"/>
    <path fill="none" stroke="#620e11" stroke-miterlimit="10" stroke-width=".9" d="M-119.9 92.4a23 23 0 0 0-3.6 16.4c-1.6.6-8.7 7.7 1.1 17.8-2-7.9 10-14.7-1-17.7"/>
    <path fill="#4d9e45" stroke="#620e11" stroke-width=".9" d="M-82.8 115.5l-.4 6.5s-12.3-2.2-9.4 2.3c.7 1.5 3 1.9 9 .7 4.1-.9 2.4-2.6.4-3m72.7-34.2l3 5.7S3 86.7 2 92c0 1.6-2 3-8 4.2-4 1-3.2-1.4-1.5-2.6"/>
    <path fill="#620e11" d="M-147.9-63.5c-14.7-12.8-22.5-11-22.5-11s-3.5 13.3-11.4 16.6a40.2 40.2 0 0 0-.1-20.4c-3.7-1.6-5.3-3.4-6.2-6.2-.8-2.9.7-6 1.8-8.7 1-2.5 2.1-5.3 4.4-6.8 2-1.4 5.4-2.3 7.3-1.6 1.9 3.7 20.3-12.8 30-21.4 1.4 3.9-6.5 24.2-15.5 32.9 4.4.8 8.9 11 12.1 26.6z"/>
    <path fill="#4e9e3b" stroke="#620e11" stroke-linecap="round" stroke-width=".9" d="M-179-119.2c1.8 9.4-13.3 14.8-10.2 25.2l-9-6.2c-1.3-1-5.9 4.6-6.4 7.6 2.8-1 9.6.5 12.7 1.3-7.8 6.4-19.2 24.2-17.5 28.5 4-6.4 17-16.8 20.7-15 1.2 4.1-2 17.8-4.2 25 7.8-3.3 14.2-18.2 14.2-18.2s11-3.4 25.7 9.5c-3.2-15.6-9.5-27-13.8-27.9 9-8.5 17.2-26.3 18.2-30.2-9.8 8.5-22.9 18-24.8 14.2-2-.6-1.5-11.6-5.5-13.8z"/>
    <path fill="#5bad46" d="M-177.2-112.9c-2.7 9.8-13.3 9-8.6 21.4-3.5 2-8.4 2.4-20 21.8 5.2-5.5 15.8-13.6 19.5-12a36.1 36.1 0 0 1-1.4 18.7c12.5-13 6-23.2 25.5-9.2-4.2-16.9-7.4-15.8-9.9-17.6a61 61 0 0 0 14.1-18c-10.8 9-16.3 9.7-18 6-2.1-.8-1.3-5.3-1.2-11zm-25 18.5c1.1-2.3 3.2-4 3.2-4v3.4z"/>
    <g transform="matrix(.65931 -.29515 .30207 .71623 -213.7 -84.6)">
      <circle cx="113.8" cy="223.4" r="15.5" fill="#630c0c"/>
      <circle cx="108.1" cy="218.1" r="6.7" fill="#fff"/>
      <circle cx="122.3" cy="227.7" r="3.8" fill="#fff"/>
    </g>
    <g transform="matrix(.65931 -.29515 .30207 .71623 -215.4 -82.4)">
      <circle cx="196.2" cy="224.3" r="15.5" fill="#630c0c"/>
      <circle cx="191.6" cy="218.1" r="6.7" fill="#fff"/>
      <circle cx="203.9" cy="227.7" r="3.8" fill="#fff"/>
    </g>
    <path fill="#630c0c" d="M-49.8 47.8a13.8 11.1 68.6 0 0 15.6 7.7 13.8 11.1 68.6 0 0 4.5-17.3z"/>
    <path fill="#ef4958" d="M-38.3 46.3a9.5 8.8 74.8 0 0-5 7.2 9 9 0 0 0 8.5.7c2.7-1.3 4.4-4 5-7.1a9.5 8.8 74.8 0 0-8.5-.8z"/>
  </g>
</svg>