<svg xmlns="http://www.w3.org/2000/svg" viewBox="0 0 512 512">
  <ellipse cx="-12.3" cy="388.9" fill="#62af4f" stroke="#75080d" stroke-linecap="round" stroke-linejoin="round" stroke-width="2.8" paint-order="stroke markers fill" rx="228" ry="213.8" transform="matrix(.67213 -.74043 .73663 .6763 0 0)"/>
  <g transform="rotate(15.2 -947.1 1635) scale(1.55696)">
    <circle cx="-70.2" cy="-16.7" r="125" fill-opacity=".1" transform="rotate(-9)"/>
    <g transform="rotate(-5.7 -1181.2 2035.6) scale(.77847)">
      <circle cx="113.8" cy="223.4" r="15.5" fill="#630c0c"/>
      <circle cx="108.1" cy="218.1" r="6.7" fill="#fff"/>
      <circle cx="122.3" cy="227.7" r="3.8" fill="#fff"/>
    </g>
    <circle cx="-93.5" cy="-3.3" r="125.7" fill="#dc0f17" stroke="#620e11" stroke-width=".9" transform="rotate(3.1)"/>
    <path fill="#f12e35" d="M-176.2-26.6c-4.8 20.8-4.7 40.1-17.4 37.2-12.6-2.9-19-22.1-14.3-43 4.7-20.7 18.9-35 31.5-32.2 12.6 2.8 4.9 17.2 0 38z"/>
    <path fill="#ce0f17" d="M29.4-32.8a165.3 165.3 0 0 1-1.2 12.5A165.3 165.3 0 0 1-93.4 116.9 125.7 125.7 0 0 0 30.7 8.3a125.7 125.7 0 0 0-1.3-41.2z"/>
    <g fill="#ef4958" transform="rotate(-3.8 -1961.7 3300) scale(.79268)">
      <circle cx="214.7" cy="245.1" r="6.3"/>
      <circle cx="95.3" cy="245.1" r="6.3"/>
    </g>
    <path fill-opacity=".1" d="M-73.2 36.3c-3 .8-7.3.8-8.3.1-.8-.5-1-1-1.6-3-1-3.2-1.5-3.8-3.2-5.2-3.1-2.3-9.6-3.2-12.4-1.8-.7.4-2 1.5-2.9 2.5-2 2.3-3 2.6-5.3 1.6a21 21 0 0 1-7.5-5.6c-.9-1.3-.9-1.5-.5-2.8.3-.7.8-2 1.3-2.8.4-.8.9-2.2 1-3.2.1-1.5 0-2.1-1-4.2-1.8-4-4.6-7.1-7-7.8a20 20 0 0 0-3.6-.2c-1.6 0-3-.2-3.5-.5-1-.8-2-3.4-2.6-6.8-.8-5.2-.2-6.6 3.3-7.7 3-.9 3.7-1.3 5-3.1 1.3-2 2.5-6.3 2.5-9 0-2.6-1-4.4-3.4-6.6-2.2-2-2.5-3-1.7-5.3a26 26 0 0 1 5.2-7.4c1.3-1 2.8-1 4.8.1 3.8 2.3 5.8 2.2 10.2-.4 4.8-2.8 6.1-5 5.9-9.7-.1-1.3 0-2.7.1-3.1.7-1.6 5.4-3.1 9.9-3.3 2.8 0 3.8.7 4.7 3.6.9 3.1 1.3 3.9 3.1 5.2a18 18 0 0 0 9 2.6c2.4 0 4.2-1 6.3-3.3 2-2.3 3-2.6 5.2-1.7 2 .8 5.5 3.3 7 5 1.4 1.7 1.5 3 .3 5.2-2.2 3.8-2 5.9.5 10.4 2.7 5 4.8 6.3 9.4 6.1 2.3-.1 2.9 0 3.8.8 1 .8 1.1 1.1 1.8 3.5a16 16 0 0 1 .5 8.5c-.4 1-.7 1.3-2 1.8-4.8 1.7-4.7 1.7-6 3.4a18 18 0 0 0-2.6 9.2c0 2.5 1 4.4 3.4 6.5 1.2 1.1 1.9 2 2 2.7.6 2.2-3.5 9-6.4 10.4-1.5.9-1.3.9-5.4-1.2-1-.4-2.5-.8-3.5-.8-1.5 0-2 .1-5 1.8-5 2.9-6.3 4.9-6.1 9.8 0 1.4 0 2.8-.2 3.1-.3 1-2.2 2-4.5 2.6zM-67.6 9a26 26 0 0 0 8.4-26.1 25.7 25.7 0 0 0-31.2-18.5c-2.5.6-7.4 3.3-9.6 5.1a26.4 26.4 0 0 0-7.8 25.7c.7 3 3.2 8 5.2 10.3 3.1 3.7 7.6 6.7 12 8 8.4 2.4 16.2.9 23-4.5z"/>
    <path fill="#fff" stroke="#630c0c" stroke-width="1.9268399999999999" d="M-82.6 34c-3 .8-7.3.9-8.3.1-.7-.5-1-1-1.6-3-1-3.2-1.4-3.8-3.2-5.2-3.1-2.3-9.6-3.2-12.4-1.8-.7.4-2 1.5-2.9 2.5-2 2.3-3 2.6-5.3 1.6a21 21 0 0 1-7.4-5.6c-1-1.3-1-1.5-.5-2.8l1.2-2.8c.5-.8.9-2.2 1-3.2.1-1.5 0-2.1-1-4.2-1.8-4-4.5-7.1-6.9-7.8a20 20 0 0 0-3.6-.2c-1.7 0-3.1-.2-3.6-.5-1-.8-2-3.4-2.6-6.8-.8-5.2-.2-6.6 3.3-7.7 3-.9 3.7-1.3 5-3.1 1.4-2 2.6-6.3 2.5-9 0-2.6-1-4.4-3.3-6.6-2.3-2-2.6-3-1.7-5.3a26 26 0 0 1 5.1-7.4c1.4-1 2.9-1 4.8.1 3.8 2.3 5.8 2.2 10.2-.4 4.9-2.8 6.1-5 5.9-9.7 0-1.3 0-2.7.2-3 .6-1.7 5.3-3.2 9.8-3.4 2.8 0 3.8.7 4.7 3.6 1 3.1 1.4 3.9 3.2 5.2a18 18 0 0 0 8.9 2.6c2.4 0 4.2-1 6.3-3.3 2-2.3 3-2.6 5.2-1.7 2 .8 5.5 3.3 7 5 1.5 1.7 1.6 3 .3 5.2-2.1 3.9-2 5.9.5 10.4 2.8 5 4.8 6.3 9.4 6.1 2.3-.1 3 0 3.8.8 1 .8 1.2 1.1 1.8 3.5a16 16 0 0 1 .5 8.5c-.4 1-.7 1.3-2 1.8-4.7 1.7-4.7 1.7-6 3.5a18 18 0 0 0-2.6 9c0 2.6 1 4.5 3.4 6.6 1.2 1.1 2 2 2 2.7.7 2.2-3.5 9-6.3 10.4-1.6.9-1.4 1-5.5-1.2-1-.4-2.5-.8-3.4-.8-1.6 0-2 .1-5 1.8-5.1 2.9-6.4 4.9-6.2 9.8l-.1 3.2c-.4.8-2.3 1.9-4.6 2.5zM-77 6.7a26 26 0 0 0 8.4-26.1c-.7-3-3.2-8-5.2-10.3a25.7 25.7 0 0 0-26-8.2c-2.5.6-7.4 3.3-9.5 5.2a26.4 26.4 0 0 0-7.9 25.6c.7 3 3.3 8 5.3 10.3 3 3.7 7.6 6.7 12 8 8.3 2.4 16.2.9 23-4.5z"/>
    <path fill="#4d9e45" d="M-42.6 9.6c-4.8-6.7-13.7-3.6-18.3 2 7-1.5 10.7 4 14.9 3 3-.6 3.4-5 3.4-5z"/>
    <path fill="none" stroke="#620e11" stroke-miterlimit="10" stroke-width=".9" d="M-23.6 20.2s-11-12.5-19.3-10.6c-.6-1.5-7.7-8.4-17.6 1.7 7.9-2.4 15 9.5 17.6-1.7"/>
    <path fill="#4d9e45" d="M-144.6-1.3c1.3-8 10.8-9.4 17.3-6.3-6.6 1.7-7.8 8.2-12 9.2-3 .8-5.3-3-5.3-3z"/>
    <path fill="none" stroke="#620e11" stroke-miterlimit="10" stroke-width=".9" d="M-163 22.3s-.2-6 5.2-13.6a23 23 0 0 1 13.5-10c-.2-1.7 3.3-11.1 16.7-6.4-8.2 1.4-9.3 15.2-16.7 6.4"/>
    <path fill="#4d9e45" stroke="#620e11" stroke-width=".9" d="M-110.4 114.8l-1.8 6.3s-11.5-4.7-9.6.3c.3 1.6 2.5 2.5 8.6 2.6 4.2 0 3-2 1-2.9m78.3-18.1l1.7 6.2s11.7-4.5 9.6.5c-.3 1.6-2.5 2.5-8.7 2.4-4 .2-2.8-2-.9-2.8"/>
    <path fill="#620e11" d="M-141.1-79c-1-19.4-7.8-23.8-7.8-23.8s-12 6.8-19.8 3.4a40.2 40.2 0 0 0 14.6-14.3c-1.5-3.7-1.2-6.1.1-8.7 1.6-2.6 4.9-3.7 7.6-4.8 2.4-1 5.2-2.1 8-1.6 2.3.6 5.3 2.3 6.1 4.2-1.3 4 23.3 5.7 36.3 6.7-1.9 3.6-22 12.1-34.4 11.7 2.4 3.7-1.8 14-10.7 27.2z"/>
    <path fill="#4e9e3b" stroke="#620e11" stroke-linecap="round" stroke-width=".9" d="M-122.6-140c-5.6 7.8-20 .7-25.3 10.2l-1.8-10.9c-.2-1.5-7.4-1-9.9.7 2.7 1.4 6.3 7.3 7.9 10-10-1-30.7 3.2-32.7 7.3 7.4-1.5 23.8.6 25.2 4.4-2.1 3.9-14.2 11-20.8 14.4 7.8 3.4 22.9-2.4 22.9-2.4s10 5.5 11 25c9-13 12.8-25.5 10.5-29.2 12.4.5 30.9-6 34.3-8-12.9-1-28.9-3.8-27.4-7.9-1-1.8 7.3-9.1 6.1-13.6z"/>
    <path fill="#5bad46" d="M-126-134.3c-8.9 4.9-15.8-3.3-21.3 8.7-3.8-1.2-7.6-4.4-29.5.8 7.5-.2 20.6 1.9 22.1 5.6a36.1 36.1 0 0 1-14.4 12c18 0 20.8-11.8 24.4 12 9-14.8 6.2-16.4 5.7-19.4a61 61 0 0 0 22.8-2.4c-14-1.5-18.3-5-17-8.9-.8-2 3-4.5 7.2-8.4zm-30.7-5.2c2.5-.8 5.2-.4 5.2-.4l-2.5 2.3z"/>
    <g fill="none" stroke="#630c0c" stroke-linecap="round" stroke-width="1.7">
      <path stroke-width="1.323399" d="M-64.2 47c5.9-7.8 12.9-10.4 12.9-10.4M-45 39.3A54.2 54.2 0 0 0-64.2 47c9.7-4.3 22.8-2.7 22.8-2.7"/>
    </g>
    <path fill="#630c0c" d="M-90.6 71.6v.7c2.1.4 4.7 1.2 8.5 0 3.8-1 8.9-4.1 16.3-11.2l-.6-.5c-7.3 7-12.2 10-15.9 11-3.6 1.1-6 .4-8.3 0z" color="#000" font-family="sans-serif" font-weight="400" overflow="visible" style="line-height:normal;font-variant-ligatures:normal;font-variant-position:normal;font-variant-caps:normal;font-variant-numeric:normal;font-variant-alternates:normal;font-feature-settings:normal;text-indent:0;text-align:start;text-decoration-line:none;text-decoration-style:solid;text-decoration-color:#000;text-transform:none;text-orientation:mixed;shape-padding:0;isolation:auto;mix-blend-mode:normal" white-space="normal"/>
    <path fill="#630c0c" d="M-90.1 67.5a.4.4-3 0 0-.2.4s.6 4.2-3.2 6.3a.4.4-3 1 0 .4.6c4.1-2.3 3.5-7 3.5-7a.4.4-3 0 0-.5-.3zM-68.3 58.1a.4.4-3 0 0-.1.4s.2 1 1 1.9c.8 1 2.2 1.8 4.5 1.8a.4.4-3 1 0 0-.7c-2.1 0-3.3-.8-4-1.6-.7-.8-.8-1.5-.8-1.5a.4.4-3 0 0-.6-.3z" color="#000" font-family="sans-serif" font-weight="400" overflow="visible" style="line-height:normal;font-variant-ligatures:normal;font-variant-position:normal;font-variant-caps:normal;font-variant-numeric:normal;font-variant-alternates:normal;font-feature-settings:normal;text-indent:0;text-align:start;text-decoration-line:none;text-decoration-style:solid;text-decoration-color:#000;text-transform:none;text-orientation:mixed;shape-padding:0;isolation:auto;mix-blend-mode:normal" white-space="normal"/>
    <path fill="#630c0c" d="M-85.5 72.6s7.6 3.8 14.3-.5c6.8-4.3 4.1-9.9 4.1-9.9s-10 10.6-18.4 10.4z"/>
    <path fill="#630c0c" d="M-67 61.6l-.4.4s-2.4 2.6-6 5.2c-3.5 2.6-8 5.2-12 5l-.2.7s7.7 4 14.6-.5c3.5-2.2 4.6-4.8 4.8-6.8.2-2-.6-3.5-.6-3.5zm-.2 1.3c.1.5.4 1.3.2 2.6-.1 1.9-1 4.2-4.4 6.3-4.8 3-10 2-12.4 1 3.8-.4 7.8-2.7 10.9-5 3.1-2.3 5.1-4.4 5.7-4.9z" color="#000" font-family="sans-serif" font-weight="400" overflow="visible" style="line-height:normal;font-variant-ligatures:normal;font-variant-position:normal;font-variant-caps:normal;font-variant-numeric:normal;font-variant-alternates:normal;font-feature-settings:normal;text-indent:0;text-align:start;text-decoration-line:none;text-decoration-style:solid;text-decoration-color:#000;text-transform:none;text-orientation:mixed;shape-padding:0;isolation:auto;mix-blend-mode:normal" white-space="normal"/>
    <path fill="#bb1717" d="M-77.7 70.6c6.4.1 10.1 4 11.9 5.2 1.7 1.3 4.7.4 6-1.4 1.2-1.7-.2-5.3-2.6-6.7-2.4-1.4-7.5-3-7.5-3s-3.6 3.5-7.8 5.9z"/>
    <path fill="#630c0c" d="M-73.4 67.3a.4.4-3 0 0 .1.6s1.7.3 3.7 1c2 .6 4.2 1.6 5.2 2.8a.4.4-3 1 0 .5-.5 12.4 12.4 0 0 0-5.5-3c-2-.7-3.8-1-3.8-1a.4.4-3 0 0-.2 0z" color="#000" font-family="sans-serif" font-weight="400" overflow="visible" style="line-height:normal;font-variant-ligatures:normal;font-variant-position:normal;font-variant-caps:normal;font-variant-numeric:normal;font-variant-alternates:normal;font-feature-settings:normal;text-indent:0;text-align:start;text-decoration-line:none;text-decoration-style:solid;text-decoration-color:#000;text-transform:none;text-orientation:mixed;shape-padding:0;isolation:auto;mix-blend-mode:normal" white-space="normal"/>
    <path fill="#630c0c" d="M-70 64.4l-.1.1s-3.6 3.4-7.8 5.8l-1.2.6h1.3c6.4.2 10 3.9 11.7 5.2 1 .7 2.3.8 3.5.5 1.2-.3 2.3-1 3-2 .8-1 .7-2.4.2-3.8a6.8 6.8 0 0 0-2.8-3.4c-2.5-1.4-7.6-3-7.6-3zm.2.8c.3 0 5 1.5 7.2 2.8 1.1.7 2 1.9 2.5 3 .5 1.3.5 2.5 0 3.2-.6.8-1.6 1.4-2.7 1.7-1 .3-2 .2-2.8-.4-1.6-1.1-5.1-4.6-11-5.2 3.7-2.2 6.6-5 6.8-5.1z" color="#000" font-family="sans-serif" font-weight="400" overflow="visible" style="line-height:normal;font-variant-ligatures:normal;font-variant-position:normal;font-variant-caps:normal;font-variant-numeric:normal;font-variant-alternates:normal;font-feature-settings:normal;text-indent:0;text-align:start;text-decoration-line:none;text-decoration-style:solid;text-decoration-color:#000;text-transform:none;text-orientation:mixed;shape-padding:0;isolation:auto;mix-blend-mode:normal" white-space="normal"/>
    <g transform="rotate(-5.7 -1273.5 2202.7) scale(.77847)">
      <path fill="#630c0c" d="M111.2 208.1a15.5 15.5 0 0 0-12.9 15.3 15.5 15.5 0 0 0 4 10.5 23 9.2.9 0 1 5.5-.2 23 9.2.9 0 1 14.8 2.4 15.5 15.5 0 0 0 6.7-12.7 15.5 15.5 0 0 0-15.5-15.5 15.5 15.5 0 0 0-2.6.2z"/>
      <circle cx="108.1" cy="218.1" r="6.7" fill="#fff"/>
      <circle cx="122.3" cy="227.7" r="3.8" fill="#fff"/>
    </g>
    <path fill="none" stroke="#630c0c" stroke-linecap="round" stroke-width="1.3" d="M-129.7 60.3c8.2-2.8 14.6-3.6 21.5-.4"/>
  </g>
</svg>