<svg xmlns="http://www.w3.org/2000/svg" viewBox="0 0 122 14">
  <path fill="#dc0f17"
    d="M49.785 13.829c-.342-.168-.693-.725-.882-1.399-.286-1.02-.24-1.332.51-3.477.454-1.296.897-2.575.986-2.841.145-.439.046-.468-1.04-.305-1.575.236-2.185.015-2.578-.935-.53-1.28-.263-1.492 2.16-1.703 1.211-.106 2.306-.256 2.434-.335.127-.079 1.513-.194 3.08-.256 2.824-.112 2.853-.107 3.4.587.498.634.633.674 1.42.426.805-.254 2.095-.472 4.044-.684.896-.098 1.72.48 1.72 1.207 0 .614-.5.87-2.778 1.417-2.751.662-2.779.673-2.779 1.083 0 .28.364.381 1.39.388 1.352.009 2.58.608 2.58 1.26 0 .493-1.809 1.112-3.249 1.112-1.372 0-1.47.046-1.866.86l-.418.86 1.245.088c.684.049 1.866-.048 2.626-.215 1.257-.277 1.433-.256 1.952.227 1.226 1.142-.119 2.072-3.562 2.463-3.009.342-3.944.092-4.385-1.172-.438-1.259-.344-1.94.527-3.804.543-1.16.725-1.832.555-2.04-.14-.17-.295-.607-.346-.97-.06-.43-.253-.655-.554-.64l-1.486.066-1.023.044-1.359 3.297c-.747 1.814-1.358 3.475-1.358 3.691 0 .217.209.513.463.658.368.21.403.361.17.74-.355.58-.843.672-1.599.302zm68.744-.336c-.922-.346-1.963-.898-2.314-1.227l-.637-.6-.295.844c-.548 1.573-1.823 1.58-2.186.013-.151-.655.261-3.321.916-5.923.246-.977.395-1.18.777-1.06.345.11.71-.18 1.353-1.076.485-.675 1.223-1.404 1.641-1.62.722-.373.808-.354 1.715.38 1.307 1.057 2.262 3.015 2.042 4.186-.13.693-.421 1.044-1.282 1.545-.612.356-1.442.729-1.843.827-.402.1-.797.289-.88.422-.206.335 1.968 1.256 3.442 1.458 1.265.173 1.654.679 1.43 1.859-.139.734-1.883.721-3.88-.028zm-.433-6.09c.984-.41 1.165-.933.511-1.476-.34-.282-.534-.215-1.19.414-.783.75-1.029 1.446-.511 1.446.15 0 .686-.173 1.19-.384zm-114.23 6.06c-.712-.386-1.264-1.678-1.267-2.962-.002-.609 1.242-4.49 1.59-4.963.108-.146.278-.533.378-.86.178-.581.135-.595-1.833-.595H.718l-.395-.946c-.697-1.669-.45-1.865 2.605-2.076C4.413.96 5.708.746 5.806.59c.097-.158.447-.216.778-.129C6.916.547 8.43.48 9.95.31L12.71 0l.779.872c.428.48.733 1.01.676 1.181-.195.59-1.394.957-3.657 1.116l-2.275.16-.613 1.502c-.337.825-.938 2.222-1.336 3.103-1.132 2.505-1.37 3.579-.903 4.094.513.567.498 1.482-.028 1.684-.564.216-.66.2-1.488-.25zm9.741.153c-3.157-.422-3.748-3.576-1.257-6.71.784-.985 5.018-4.667 5.374-4.673.098-.002.54.303.984.675.608.512.798.885.774 1.522-.016.464.264 1.439.623 2.166 1.072 2.173 1.405 3.478 1.073 4.206-.794 1.745-4.7 3.197-7.57 2.814zm4.13-3.214c1.37-.698 1.485-1.148.666-2.59-.906-1.598-1.613-1.665-3.164-.3-1.352 1.19-2.218 2.653-1.963 3.317.155.403.394.44 1.808.28.896-.101 2.09-.42 2.654-.707zm4.751 2.807c-.591-1.298-.368-2.846.785-5.455C24.618 4.714 26 2.495 26.55 2.495c.226 0 .593.149.816.33 1.298 1.062 1.425 1.28 1.425 2.457 0 1.44.473 1.742 1.688 1.08 1.006-.55 2.635-2.03 3.228-2.936.574-.876.998-.84 1.96.167.905.946.913 1.034.412 4.458-.394 2.691-1.017 4.746-1.541 5.079-1.216.772-1.863-.589-1.47-3.093.133-.847.303-1.64.379-1.763.076-.122-.041-.223-.26-.223-.218 0-.477.131-.576.291-.297.482-3.369 1.826-4.171 1.826-.48 0-1.034-.286-1.544-.796-.904-.904-1.166-.853-1.413.272-.278 1.261-1.811 4.083-2.267 4.17-.239.045-.55-.213-.728-.605zm14.35.004c-.553-.844-.465-1.163 1.462-5.239 1.234-2.61 1.704-3.362 2.104-3.362.283 0 .897-.405 1.364-.9.781-.829.915-.879 1.675-.623.454.153.856.3.893.328.036.027.259 1.087.494 2.356.427 2.303.43 2.309 1.455 2.719.565.226 1.027.496 1.027.6 0 .105-.3.47-.665.814-.541.509-.634.785-.5 1.494.136.731.035.997-.64 1.67-1.006 1.008-1.643 1.014-2.375.025-.566-.766-.567-.78-.05-.944a.776.776 0 0 0 .525-.706c0-.384-.12-.493-.42-.379-.23.089-.87.233-1.42.321-.827.133-1.069.063-1.395-.403-.475-.678-.76-.417-1.27 1.168-.558 1.733-1.526 2.187-2.264 1.06zm5.611-4.261c.512-.138.539-.242.299-1.187-.145-.57-.338-1.034-.43-1.03-.184.005-1.62 1.972-1.62 2.219 0 .197 1.013.196 1.751-.002zm33.119 4.51c-.711-.386-1.264-1.677-1.267-2.96-.002-.61 1.242-4.49 1.59-4.964.108-.146.278-.533.378-.86.178-.581.135-.595-1.833-.595H72.42l-.395-.946c-.697-1.669-.45-1.866 2.605-2.076 1.486-.102 2.78-.315 2.878-.472.097-.158.447-.216.779-.129.33.087 1.845.018 3.364-.151L84.413 0l.78.872c.427.48.732 1.01.676 1.181-.196.59-1.395.957-3.658 1.116l-2.275.16-.613 1.502c-.337.825-.938 2.221-1.336 3.103-1.132 2.505-1.369 3.579-.903 4.094.513.567.498 1.482-.028 1.684-.564.216-.66.2-1.488-.25zm9.108.08c-.842-1.027-.972-3.645-.314-6.284.127-.51.293-1.282.37-1.717.283-1.614 1.107-3.007 1.797-3.037.105-.005.388.668.628 1.495.412 1.416.41 1.59-.037 2.977-.261.81-.528 2.544-.593 3.853-.123 2.475-.331 3.043-1.115 3.043-.256 0-.587-.149-.736-.33zm4.487-.333c-.591-1.298-.368-2.846.785-5.455 1.345-3.04 2.727-5.259 3.277-5.259.226 0 .593.149.816.33 1.298 1.062 1.425 1.28 1.425 2.457 0 1.44.473 1.742 1.688 1.08 1.006-.55 2.635-2.03 3.228-2.936.574-.877.998-.84 1.96.167.905.946.913 1.033.412 4.458-.394 2.691-1.017 4.746-1.541 5.079-1.216.772-1.863-.589-1.47-3.093.133-.847.303-1.64.379-1.763.076-.122-.041-.223-.26-.223-.218 0-.477.131-.576.291-.297.481-3.369 1.826-4.171 1.826-.48 0-1.034-.286-1.544-.796-.904-.904-1.166-.854-1.413.271-.278 1.262-1.811 4.084-2.267 4.17-.239.046-.55-.212-.728-.604zm15.643.347c-.614-.297-1.138-1.454-1.138-2.512 0-.349.364-1.412.809-2.363.543-1.162.725-1.832.553-2.04-.14-.17-.295-.726-.345-1.235-.091-.925-.088-.927 1.629-1.493 1.47-.484 2.98-.77 5.424-1.027.664-.07 1.455.597 1.455 1.228 0 .614-.5.87-2.778 1.417-2.75.662-2.778.673-2.778 1.083 0 .28.364.381 1.389.388 1.352.009 2.58.608 2.58 1.26 0 .493-1.809 1.112-3.249 1.112-1.372 0-1.47.046-1.866.86l-.418.86 1.245.088c.684.049 1.866-.048 2.626-.215 1.257-.277 1.433-.256 1.952.227 1.135 1.058-.061 2.031-2.959 2.407-2.464.32-3.396.31-4.13-.045z"
  />
</svg>
