<svg xmlns="http://www.w3.org/2000/svg" viewBox="0 0 310 300">
  <path fill="#4d9e45" d="M40 218.5c-8 2.4-13.7-6.4-14.2-14.4 4.8 6 11.4 4 14.3 7.7 2.2 2.7-.1 6.7-.1 6.7z"/>
  <path fill="none" stroke="#620e11" stroke-miterlimit="10" d="M52 223.1s-6.5 2.3-12.2-4.9c-1.4 1-11.6 1.8-13.8-13.6 5.2 7.5 18.2 2.4 13.8 13.6"/>
  <path fill="#5aac46" d="M39.2 217.1s-4.6 2.4-9.7-4.7c5 4.2 7.7 3 9.7 4.7z"/>
  <circle cx="164.3" cy="185.8" r="127.4" fill="#dc0f17" stroke="#620e11" stroke-width=".9" transform="rotate(-2.4)"/>
  <path fill="#f12e35" d="M92.1 143.8c-6 20.7-7 40.3-19.7 36.6-12.6-3.7-18-23.5-11.9-44.2 6-20.8 21.2-34.6 33.8-31 12.6 3.8 3.9 17.8-2.2 38.6z"/>
  <path fill="#ce0f17" d="M293 142.4a167.6 167.6 0 0 1 0 12.7 167.6 167.6 0 0 1-109.3 150.2 127.4 127.4 0 0 0 114.7-121.5 127.4 127.4 0 0 0-5.3-41.4z"/>
  <g transform="rotate(3.2 125 505.3) scale(.91611)">
    <circle cx="113.8" cy="223.4" r="15.5" fill="#630c0c"/>
    <circle cx="108.1" cy="218.1" r="6.7" fill="#fff"/>
    <circle cx="122.3" cy="227.7" r="3.8" fill="#fff"/>
  </g>
  <g transform="rotate(3.2 125 505.3) scale(.91611)">
    <circle cx="196.2" cy="224.3" r="15.5" fill="#630c0c"/>
    <circle cx="191.6" cy="218.1" r="6.7" fill="#fff"/>
    <circle cx="203.9" cy="227.7" r="3.8" fill="#fff"/>
  </g>
  <g fill="#ef4958" transform="rotate(3.4 76.8 493) scale(.91611)">
    <circle cx="214.7" cy="245.1" r="6.3"/>
    <circle cx="95.3" cy="245.1" r="6.3"/>
  </g>
  <path fill="#620e11" d="M128.8 110c-3.7-19.4-11.2-22.7-11.2-22.7s-11 8.5-19.3 6.3A40.8 40.8 0 0 0 110.8 77c-2-3.6-2.1-6-1-8.8 1-2.8 4.1-4.4 6.7-6 2.4-1.3 5-2.8 7.7-2.6 2.5.1 5.7 1.4 6.9 3.2-.8 4.2 24.2 2.3 37.4 1.5-1.4 3.9-20.3 15.4-32.9 16.6 3 3.5.3 14.5-6.8 29z"/>
  <path fill="#4e9e3b" stroke="#620e11" stroke-linecap="round" stroke-width=".9143200000000001" d="M138.6 46c-4.5 8.7-20 3.6-23.9 14l-3.4-10.7c-.5-1.4-7.6.2-9.9 2.2 3 .9 7.4 6.4 9.4 9-10.2.3-30.4 7.5-31.7 12 7.1-2.7 24-3 26 .7-1.7 4.2-12.7 13-19 17.5 8.4 2.2 22.7-5.8 22.7-5.8s11 4.1 14.7 23.5c7-14.5 9.2-27.4 6.2-30.9a89.6 89.6 0 0 0 33.4-13c-13.1.8-29.5.4-28.7-3.8-1.2-1.8 6-10.3 4.2-14.7z"/>
  <path fill="#5bad46" d="M136 52.3c-8.1 6.2-16.3-1-20.1 11.8-4-.6-8.3-3.3-29.6 5 7.6-1.2 21-1 23 2.6a36.6 36.6 0 0 1-12.6 14.1c18-2.7 19.2-15 26.2 8.4 7-16.2 3.8-17.3 3-20.3a61.4 61.4 0 0 0 22.4-5.7c-14.4.5-19-2.3-18.2-6.4-1.2-1.8 2.2-5 5.8-9.5zm-31.6-.8c2.4-1.1 5.1-1.2 5.1-1.2l-2 2.8z"/>
  <path fill="none" stroke="#630c0c" stroke-width="2.4" d="M146.6 224c2 17.4 21 17.4 23 1"/>
  <path fill="#fff" fill-opacity=".9" d="M158 173.7a3 3 0 0 1-.7-1.1 4 4 0 0 0-.2-.9c-.3-.6-.2-1.4.2-1.6a5 5 0 0 0 1-1c.5-.6.7-.7 1-.5l1.2.4c1.7.5 2 .7 2 1.4 0 .4 0 1-.3 1.4l-.4 1.1c0 .3-.3.5-.7.7l-.8.6-1 .1c-.8 0-.8 0-1.4-.6zm13.6 1.6c-1.9-.3-2.8-.8-3.7-2.1a10 10 0 0 1-1.2-2.3c-.5-1.3-.5-1.3-.3-3.1.6-4.1 3.1-7.8 8-11.8l2.4-1.8 1.2-1.1c.8-.8 1.2-1 1.5-1 .2 0 .6-.2.7-.4l.8-.7.3-.4.9.4c.6.3.9.5 1 .8 0 .2.3.8.7 1.3l.9 1.5c.1.6.1.7-.3 1.4l-.3.8.2.6 1.1 3.8a36.6 36.6 0 0 1 1.3 5.3c.3 1.1.3 1.7.2 2.6-.3 1.3-1 2.8-1.7 3-.2 0-1 .5-1.6 1-.8.6-1.5 1-2 1.1l-1.9.6c-.7.3-1.7.5-2.2.5l-2 .3c-1 .1-1.4.1-4-.3zm3.7-5.6c2.2-.2 3.3-.5 4.8-1.3 2.2-1.2 2.4-2 1.4-5a198 198 0 0 1-1.3-3.8l-.5.3c-.4.4-1 .4-1.2 0 0 0-.6.3-1.7 1.3-2.3 2-2.6 2.2-3.8 4.1-1.2 2-1.7 3.3-1.2 3.7.6.7 1.5.9 3.5.7zm18.7 7.7c-1.9-.3-2.7-.8-3.7-2a10 10 0 0 1-1.2-2.3c-.5-1.4-.5-1.4-.2-3.2.5-4 3-7.8 7.8-11.7l2.5-1.9 1.2-1c.8-.8 1.3-1.1 1.5-1.1.2 0 .6-.1.7-.3l.8-.7.4-.4.8.3c.6.3.9.5 1 .8 0 .3.4.9.7 1.3l1 1.6c0 .5 0 .7-.4 1.3l-.3.8.2.6 1.1 3.8a36.4 36.4 0 0 1 1.4 5.3c.2 1.2.2 1.7 0 2.6-.1 1.3-1 2.8-1.6 3l-1.6 1.1c-.8.6-1.5 1-2 1l-1.8.7c-.7.2-1.8.5-2.3.5l-2 .2c-1 .2-1.4.2-4-.3zm3.7-5.6c2.2-.2 3.3-.5 4.8-1.3 2.2-1.1 2.4-1.9 1.4-4.9a187 187 0 0 1-1.3-3.8l-.5.3c-.4.3-1 .3-1.2 0 0 0-.6.3-1.7 1.2-2.3 2-2.6 2.3-3.8 4.2-1.2 2-1.6 3.2-1.2 3.7.6.7 1.5.8 3.5.6zm-75.8-2c-1.6-.6-2.2-1.7-2-4 0-2.2.3-3 1.7-4.3 1.5-1.6 4.4-4 5.6-4.8a33 33 0 0 0 1.8-1.2 38.7 38.7 0 0 1 2-1.3c.8-.5 1.1-.8 1-1-.4-.4-2.9-.6-4.8-.3-1.9.2-4 0-4.8-.4-.6-.2-.8-1-.7-2.7 0-1.2.1-1.4.6-2l.5-.6 2-.2a17 17 0 0 1 10.2 1.5c.8.6 1.2.9 1.3 1.2.2.8.3 1 1 1.7.8.7 1.3 2 1.2 3l-.6 1.4c-.8 1-3.4 3.1-4.8 3.8l-2 1.3a14.2 14.2 0 0 1-2 1.3l-1.8 1.3-.7.8.5.1c.5.2 3.6.2 5.4 0 .7-.2 1.8-.3 2.4-.3.6 0 1.4 0 1.7-.2l1.6-.1c1 0 1 0 1.6.7.3.4.5.9.5 1.2l.2.7c.1.2.2.2.6-.1.4-.4.5-.4 2.5-.1 2.4.3 5.3.3 5.5 0l.7-.4c.5-.1.8-.8.4-.8l-.1-.3s-.2-.3-.5-.4c-.2 0-.7-.3-1-.6l-1.1-.6-2.6-1.3c-1.6-1-2-1.3-2.3-1.9-1-1.6-1-1.8-.7-3.8l.6-2.4c.7-1.3 3.8-3.1 6.6-4.1l1.4-.5.7 1c1.4 1.6 1.3 1.6 4.6 1.7 4 0 4.7.2 5 .7.2.2.3.5.3.7l.3.9c.4.7.6 1.5.4 2.1-.2.6-.3.6-1.3.9-.7 0-1.5.2-1.8.1l-2 .1c-.8 0-1.5.1-1.6 0-.2 0-4.4.4-5 .6l-.7.2.4.4 1 .7c1.1.6 3.3 3.7 4 5.8.3.8.5 1.5.5 2.3 0 1-.1 1.1-.6 1.8-.3.5-1 1.2-1.5 1.6-.8.6-1.2.9-2.3 1.1a7 7 0 0 1-1.8.3h-1.3c-.7.1-1.2 0-1.8-.1a20.8 20.8 0 0 0-1.7-.5c-1.3-.3-2.3-.9-2.6-1.6l-.6-1.3-.4-.5-.6.4c-.3.3-.7.4-1 .4a2 2 0 0 0-1 .2 112.7 112.7 0 0 0-5.6.7c-6.1.6-8.7.6-10.6 0zm39-4.4c-.2-.1-.6-.8-.9-1.5-.5-1-.5-1.2-.3-2.1.1-.8.3-1.2.7-1.6.4-.5.5-.5 1.4-.4.6 0 1.1.2 1.5.5l1 .4a.3.3 0 0 1 .2.3.3.3 0 0 0 .2.2c.2 0 .2.3.2 1v1.5c0 .6 0 .6-1.6 1.3l-1.8.7-.6-.3z"/>
  <g>
    <path fill="#4d9e45" d="M287.1 251c8-2.4 13.7 6.4 14.2 14.3-4.8-6-11.4-4-14.3-7.7-2.2-2.6.1-6.6.1-6.6z"/>
    <path fill="none" stroke="#620e11" stroke-miterlimit="10" d="M275.2 246.3s6.4-2.3 12 5c1.6-1 11.7-1.8 14 13.6-5.2-7.5-18.3-2.4-14-13.7"/>
    <path fill="#5aac46" d="M287.9 252.3s4.6-2.3 9.7 4.8c-5-4.2-7.7-3-9.7-4.8z"/>
  </g>
</svg>
