<svg xmlns="http://www.w3.org/2000/svg" viewBox="0 0 310 300">
  <circle cx="143.271" cy="143.619" r="132.489" fill-opacity=".1"/>
  <circle cx="176.978" cy="150.81" r="123.507" fill="#dc0f17" stroke="#620e11" stroke-width=".888"/>
  <path fill="#f12e35" d="M101.258 113.596c-6.688 19.846-8.488 38.747-20.554 34.681-12.066-4.066-16.426-23.45-9.738-43.297 6.688-19.847 21.89-32.64 33.957-28.574 12.065 4.066 3.023 17.343-3.665 37.19z"/>
  <path fill="#ce0f17" d="M295.916 120.27a162.432 162.432 0 0 1-.5 12.276 162.432 162.432 0 0 1-111.878 141.129 123.507 123.507 0 0 0 115.88-113.086 123.507 123.507 0 0 0-3.502-40.32z"/>
  <g transform="rotate(5.778 30.033 595.113) scale(.88787)">
    <circle cx="113.782" cy="223.387" r="15.457" fill="#630c0c"/>
    <circle cx="108.067" cy="218.106" r="6.716" fill="#fff"/>
    <circle cx="122.295" cy="227.741" r="3.79" fill="#fff"/>
  </g>
  <g transform="rotate(5.778 30.033 595.113) scale(.88787)">
    <circle cx="196.218" cy="224.307" r="15.457" fill="#630c0c"/>
    <ellipse cx="191.563" cy="218.106" fill="#fff" rx="6.716" ry="6.716"/>
    <circle cx="203.858" cy="227.741" r="3.79" fill="#fff"/>
  </g>
  <path fill="#630c0c" d="M160.643 229.045a13.315 15.357 11.374 0 0 10.056 17.497 13.315 15.357 11.374 0 0 16.038-12.248z"/>
  <path fill="#ef4958" d="M172.906 235.57a10.579 10.579 0 0 0-9.69 3.033c1.562 3.27 4.334 5.688 7.8 6.385 3.467.697 6.958-.463 9.663-2.88a10.579 10.579 0 0 0-7.773-6.537z"/>
  <g fill="#ef4958" transform="rotate(4.909 -36.479 672.608) scale(.88787)">
    <circle cx="214.743" cy="245.11" r="6.256"/>
    <circle cx="95.257" cy="245.11" r="6.256"/>
  </g>
  <path fill="#4d9e45" d="M56.029 210.803c-5.236 5.716-13.737 1.78-17.716-3.991 6.55 2.177 10.85-2.432 14.839-1.102 2.87.975 2.877 5.093 2.877 5.093z"/>
  <path fill="none" stroke="#620e11" stroke-miterlimit="10" stroke-width="1.033" d="M70.403 260.72s-6.983 2.606-6.845 11.868c-1.82.336-10.958 6.514-2.267 19.592-.782-9.1 13.696-14.099 2.267-19.592" transform="matrix(.26451 -.79872 -.84285 -.27913 268.74 337.576)"/>
  <path fill="#5aac46" d="M54.826 210.175s-2.6 4.003-9.845 1.13c5.888.689 7.431-1.527 9.845-1.13z"/>
  <g>
    <path fill="#4d9e45" d="M258.17 259.41c7.462 3.173 6.34 12.48 1.879 18.072.008-6.902-6.035-9.534-6.026-13.74.023-3.031 4.147-4.332 4.147-4.332z"/>
    <path fill="none" stroke="#620e11" stroke-miterlimit="10" stroke-width=".91716971" d="M252.09 249.116s3.271 1.22 5.014 5.041c.657 1.439 1.096 3.246 1.063 5.496 1.616.298 9.73 5.783 2.013 17.395.694-8.08-12.16-12.518-2.013-17.395"/>
    <path fill="#5aac46" d="M257.94 260.75s4.872 1.21 4.398 8.99c-1.263-5.806-3.995-6.574-4.398-8.99z"/>
  </g>
  <g>
    <path fill="#4d9e45" stroke="#620e11" stroke-width=".91716971" d="M163.995 273.569l-.46 6.404s-12.007-2.133-9.174 2.232c.65 1.495 2.898 1.868 8.812.69 4.058-.81 2.41-2.539.361-2.922"/>
    <path fill="#5aac46" d="M161.236 281.043c-1.96-.93-6.292-.473-6.029.355.425.91 2.173-.528 6.03-.355z"/>
    <g>
      <path fill="#4d9e45" stroke="#620e11" stroke-width=".91716971" d="M189.962 273.569l.46 6.404s12.007-2.133 9.174 2.232c-.65 1.495-2.898 1.868-8.812.69-4.058-.81-2.41-2.539-.361-2.922"/>
      <path fill="#5aac46" d="M192.72 281.043c1.962-.93 6.293-.473 6.03.355-.425.91-2.173-.528-6.03-.355z"/>
    </g>
  </g>
  <g>
    <path fill="#4e9e3b" stroke="#620e11" stroke-linecap="round" stroke-width=".91716971" d="M33.089 228.545c-.699-9.442 14.667-13.185 12.578-23.652 1.578 1.331 7.258 6.122 8.243 6.99 1.124.988 6.191-3.983 6.99-6.807-2.82.74-9.323-1.445-12.27-2.53 8.239-5.575 21.16-21.792 19.955-26.113-4.467 5.83-18.254 14.61-21.694 12.649-.821-4.312 3.75-17.22 6.596-24.067-7.97 2.421-15.705 16.294-15.705 16.294s-11.111 2.245-24.13-11.838c1.632 15.593 6.451 27.275 10.663 28.611-9.724 7.446-19.573 24.01-20.86 27.788 10.413-7.406 24.18-15.391 25.64-11.553 1.87.874.262 11.526 3.994 14.228z"/>
    <path fill="#5bad46" d="M32.09 222.077c3.496-9.247 13.916-7.47 10.482-20.044 3.67-1.503 8.488-1.485 21.747-19.216-5.532 4.948-16.742 11.631-20.181 9.67-.822-4.312.353-11.237 3.198-18.084-13.46 11.368-8.182 22.1-25.894 6.482 2.494 16.895 5.657 16.137 7.924 18.173-9.724 7.446-13.128 12.44-15.598 16.207 11.573-7.768 16.872-7.86 18.332-4.022 1.87.873.719 5.252-.01 10.834zM58.433 206.587c-1.339 2.134-3.607 3.588-3.607 3.588l.31-3.285z"/>
  </g>
  <path fill="#fff" fill-opacity=".9" d="M177.718 170.12c-.328-.392-.626-.933-.661-1.202a4.279 4.279 0 0 0-.216-.866c-.262-.651-.116-1.55.284-1.738.199-.094.677-.524 1.064-.955.559-.623.763-.746.995-.598.16.102.761.334 1.335.515 1.715.542 1.966.723 2.026 1.461.035.432-.077.927-.328 1.452-.21.438-.4.965-.42 1.17-.026.242-.302.504-.78.739-.406.2-.775.44-.82.534-.044.093-.485.176-.98.185-.854.014-.931-.021-1.499-.697zm14.322 1.785c-1.943-.347-2.878-.883-3.897-2.231-.401-.53-.952-1.598-1.224-2.371-.493-1.402-.494-1.414-.204-3.298.662-4.29 3.314-8.157 8.386-12.224 1.334-1.07 2.485-1.94 2.557-1.932.071.008.664-.496 1.316-1.119.831-.793 1.308-1.12 1.594-1.09.224.024.564-.113.756-.303.192-.191.536-.53.764-.754l.415-.407.877.398c.63.286.906.522.978.839.055.242.427.863.827 1.38.4.515.802 1.24.893 1.609.148.602.117.745-.296 1.398-.253.4-.398.778-.322.84.076.062.156.357.177.656.022.298.53 2.09 1.132 3.982.6 1.892 1.08 3.566 1.064 3.72-.015.154.107.975.271 1.825.235 1.21.255 1.803.097 2.73-.236 1.374-1.1 2.916-1.76 3.14-.231.08-1.012.583-1.734 1.119-.81.6-1.578 1.018-2.001 1.086-.379.06-1.288.33-2.022.599-.733.268-1.81.506-2.391.527-.582.021-1.509.118-2.06.215-1.035.183-1.511.145-4.193-.334zm3.96-5.8c2.292-.187 3.465-.495 5.008-1.315 2.29-1.217 2.522-1.998 1.535-5.171-.255-.818-.627-2.05-.827-2.738-.2-.688-.42-1.257-.489-1.265-.068-.007-.312.13-.543.303-.455.342-.98.362-1.234.048-.108-.134-.705.26-1.825 1.206-2.462 2.077-2.724 2.361-3.99 4.334-1.337 2.082-1.788 3.376-1.348 3.867.638.713 1.6.902 3.714.73zm19.5 8.271c-1.943-.347-2.879-.882-3.898-2.23-.4-.531-.951-1.598-1.223-2.372-.494-1.402-.494-1.413-.204-3.297.661-4.291 3.314-8.157 8.385-12.224 1.335-1.07 2.486-1.94 2.557-1.932.072.008.664-.496 1.317-1.12.83-.793 1.308-1.12 1.593-1.09.224.025.565-.112.757-.303.192-.19.536-.53.764-.753l.414-.407.878.398c.63.286.906.522.977.838.055.243.428.863.828 1.38.4.516.802 1.24.892 1.61.148.602.118.745-.296 1.398-.253.4-.398.778-.321.84.076.062.156.357.177.655.022.3.53 2.091 1.131 3.983s1.08 3.566 1.065 3.72c-.016.153.106.975.271 1.825.234 1.21.255 1.803.096 2.73-.235 1.374-1.1 2.915-1.76 3.14-.23.079-1.011.582-1.733 1.119-.81.6-1.578 1.017-2.002 1.085-.378.06-1.288.33-2.021.6-.734.268-1.81.505-2.392.526-.582.022-1.508.118-2.059.216-1.036.182-1.511.144-4.193-.335zm3.96-5.8c2.292-.186 3.465-.494 5.007-1.314 2.29-1.218 2.522-1.999 1.535-5.172-.254-.817-.626-2.05-.827-2.737-.2-.689-.42-1.258-.488-1.265-.068-.007-.313.129-.543.302-.455.342-.98.363-1.234.048-.108-.133-.705.261-1.826 1.206-2.461 2.077-2.723 2.362-3.99 4.334-1.336 2.082-1.787 3.376-1.347 3.867.638.713 1.599.902 3.713.73zm-79.457-2.958c-1.678-.598-2.223-1.708-2.077-4.226.132-2.272.45-3.04 1.832-4.431 1.602-1.612 4.65-4.13 5.923-4.896a34.64 34.64 0 0 0 1.958-1.28 40.541 40.541 0 0 1 2.096-1.373c.88-.535 1.169-.8 1.044-.955-.36-.445-2.994-.683-5.008-.453-1.983.226-4.211.057-5.088-.386-.605-.306-.82-1.19-.7-2.863.092-1.27.16-1.493.646-2.104l.542-.684 2.052-.174c4.534-.385 8.265.228 10.709 1.76.904.566 1.263.902 1.349 1.263.194.809.329 1.025 1.082 1.732.776.728 1.351 2.155 1.261 3.127-.027.294-.345.947-.707 1.453-.8 1.116-3.542 3.286-5.024 3.975-.596.276-1.526.87-2.068 1.319a14.831 14.831 0 0 1-2.134 1.419c-.633.332-1.489.937-1.902 1.345l-.751.743.458.167c.58.212 3.862.18 5.655-.056.752-.1 1.891-.183 2.531-.185.64-.003 1.468-.077 1.838-.166.37-.088 1.123-.17 1.674-.18.99-.019 1.006-.012 1.604.753.362.462.598.97.589 1.265-.01.27.066.616.166.767.155.232.256.211.646-.13.461-.403.475-.403 2.634-.062 2.442.387 5.49.42 5.743.062.086-.121.409-.295.717-.386.528-.157.875-.809.454-.853-.098-.01-.166-.13-.152-.266.014-.136-.188-.324-.45-.418-.262-.093-.74-.385-1.062-.648-.322-.262-.856-.565-1.187-.673-.33-.108-1.516-.743-2.634-1.411-1.674-1-2.112-1.352-2.485-1.992-.99-1.699-1.025-1.9-.671-4.016.19-1.14.46-2.156.658-2.48.802-1.314 3.981-3.244 7.011-4.256l1.42-.474.774.975c1.402 1.768 1.343 1.744 4.729 1.861 4.185.144 4.997.265 5.34.793.152.235.26.586.24.78-.021.194.1.598.27.899.46.813.596 1.604.395 2.278-.168.562-.256.616-1.384.838-.663.13-1.508.206-1.878.167-.37-.04-1.328-.017-2.13.05-.8.065-1.52.095-1.598.064-.269-.104-4.673.303-5.321.492l-.65.188.408.403c.223.221.711.581 1.083.8 1.14.667 3.35 3.929 4.122 6.08.305.85.44 1.617.42 2.391-.024 1-.098 1.242-.604 1.975-.317.46-1.031 1.195-1.587 1.633-.805.633-1.307.863-2.455 1.123-.794.18-1.614.29-1.823.244-.208-.046-.84-.025-1.403.044-.778.097-1.226.06-1.87-.157a21.806 21.806 0 0 0-1.812-.499c-1.372-.305-2.353-.951-2.701-1.779a13.727 13.727 0 0 0-.634-1.281l-.345-.596-.623.449c-.395.284-.82.428-1.161.392-.296-.03-.77.074-1.055.232-.285.16-.923.3-1.418.313-.496.014-2.494.174-4.44.356-6.386.599-9.014.556-11.08-.181zm40.98-4.141c-.246-.17-.676-.859-.966-1.55-.476-1.133-.505-1.337-.326-2.298.145-.778.334-1.2.724-1.614.488-.517.602-.551 1.504-.456.624.066 1.212.257 1.634.531.363.236.783.442.933.458.15.016.261.149.246.296a.269.269 0 0 0 .238.294c.203.022.244.251.17.962a12.89 12.89 0 0 0-.065 1.565c.031.63.026.635-1.637 1.4-.918.422-1.746.756-1.84.742-.094-.014-.371-.162-.615-.33z"/>
</svg>